<?xml version="1.0" standalone="no"?>
<svg xmlns="http://www.w3.org/2000/svg" width="237" height="760"><g class="legend" id="id15" style="font: 10px sans-serif;" transform="translate(0,720)"><rect width="18" height="18" x="0" style="fill: rgb(127, 201, 127);"/><text y="9" dy=".35em" text-anchor="start" x="24">Epsilonbacteraeota</text></g><g class="legend" id="id24" style="font: 10px sans-serif;" transform="translate(0,700)"><rect width="18" height="18" x="0" style="fill: rgb(190, 174, 212);"/><text y="9" dy=".35em" text-anchor="start" x="24">Kiritimatiellaeota</text></g><g class="legend" id="id26" style="font: 10px sans-serif;" transform="translate(0,680)"><rect width="18" height="18" x="0" style="fill: rgb(253, 192, 134);"/><text y="9" dy=".35em" text-anchor="start" x="24">Margulisbacteria</text></g><g class="legend" id="id20" style="font: 10px sans-serif;" transform="translate(0,660)"><rect width="18" height="18" x="0" style="fill: rgb(255, 255, 153);"/><text y="9" dy=".35em" text-anchor="start" x="24">Fusobacteria</text></g><g class="legend" id="id16" style="font: 10px sans-serif;" transform="translate(0,640)"><rect width="18" height="18" x="0" style="fill: rgb(56, 108, 176);"/><text y="9" dy=".35em" text-anchor="start" x="24">FBP</text></g><g class="legend" id="id17" style="font: 10px sans-serif;" transform="translate(0,620)"><rect width="18" height="18" x="0" style="fill: rgb(240, 2, 127);"/><text y="9" dy=".35em" text-anchor="start" x="24">FCPU426</text></g><g class="legend" id="id1" style="font: 10px sans-serif;" transform="translate(0,600)"><rect width="18" height="18" x="0" style="fill: rgb(191, 91, 23);"/><text y="9" dy=".35em" text-anchor="start" x="24">Nanoarchaeaeota</text></g><g class="legend" id="id18" style="font: 10px sans-serif;" transform="translate(0,580)"><rect width="18" height="18" x="0" style="fill: rgb(102, 102, 102);"/><text y="9" dy=".35em" text-anchor="start" x="24">Fibrobacteres</text></g><g class="legend" id="id0" style="font: 10px sans-serif;" transform="translate(0,560)"><rect width="18" height="18" x="0" style="fill: rgb(127, 201, 127);"/><text y="9" dy=".35em" text-anchor="start" x="24">Euryarchaeota</text></g><g class="legend" id="id35" style="font: 10px sans-serif;" transform="translate(0,540)"><rect width="18" height="18" x="0" style="fill: rgb(190, 174, 212);"/><text y="9" dy=".35em" text-anchor="start" x="24">WPS-2</text></g><g class="legend" id="id33" style="font: 10px sans-serif;" transform="translate(0,520)"><rect width="18" height="18" x="0" style="fill: rgb(253, 192, 134);"/><text y="9" dy=".35em" text-anchor="start" x="24">Spirochaetes</text></g><g class="legend" id="id22" style="font: 10px sans-serif;" transform="translate(0,500)"><rect width="18" height="18" x="0" style="fill: rgb(255, 255, 153);"/><text y="9" dy=".35em" text-anchor="start" x="24">Halanaerobiaeota</text></g><g class="legend" id="id28" style="font: 10px sans-serif;" transform="translate(0,480)"><rect width="18" height="18" x="0" style="fill: rgb(56, 108, 176);"/><text y="9" dy=".35em" text-anchor="start" x="24">Omnitrophicaeota</text></g><g class="legend" id="id25" style="font: 10px sans-serif;" transform="translate(0,460)"><rect width="18" height="18" x="0" style="fill: rgb(240, 2, 127);"/><text y="9" dy=".35em" text-anchor="start" x="24">Latescibacteria</text></g><g class="legend" id="id36" style="font: 10px sans-serif;" transform="translate(0,440)"><rect width="18" height="18" x="0" style="fill: rgb(191, 91, 23);"/><text y="9" dy=".35em" text-anchor="start" x="24">WS2</text></g><g class="legend" id="id13" style="font: 10px sans-serif;" transform="translate(0,420)"><rect width="18" height="18" x="0" style="fill: rgb(102, 102, 102);"/><text y="9" dy=".35em" text-anchor="start" x="24">Elusimicrobia</text></g><g class="legend" id="id12" style="font: 10px sans-serif;" transform="translate(0,400)"><rect width="18" height="18" x="0" style="fill: rgb(127, 201, 127);"/><text y="9" dy=".35em" text-anchor="start" x="24">Dependentiae</text></g><g class="legend" id="id23" style="font: 10px sans-serif;" transform="translate(0,380)"><rect width="18" height="18" x="0" style="fill: rgb(190, 174, 212);"/><text y="9" dy=".35em" text-anchor="start" x="24">Hydrogenedentes</text></g><g class="legend" id="id14" style="font: 10px sans-serif;" transform="translate(0,360)"><rect width="18" height="18" x="0" style="fill: rgb(253, 192, 134);"/><text y="9" dy=".35em" text-anchor="start" x="24">Entotheonellaeota</text></g><g class="legend" id="id10" style="font: 10px sans-serif;" transform="translate(0,340)"><rect width="18" height="18" x="0" style="fill: rgb(255, 255, 153);"/><text y="9" dy=".35em" text-anchor="start" x="24">Dadabacteria</text></g><g class="legend" id="id32" style="font: 10px sans-serif;" transform="translate(0,320)"><rect width="18" height="18" x="0" style="fill: rgb(56, 108, 176);"/><text y="9" dy=".35em" text-anchor="start" x="24">Rokubacteria</text></g><g class="legend" id="id4" style="font: 10px sans-serif;" transform="translate(0,300)"><rect width="18" height="18" x="0" style="fill: rgb(240, 2, 127);"/><text y="9" dy=".35em" text-anchor="start" x="24">Armatimonadetes</text></g><g class="legend" id="id27" style="font: 10px sans-serif;" transform="translate(0,280)"><rect width="18" height="18" x="0" style="fill: rgb(191, 91, 23);"/><text y="9" dy=".35em" text-anchor="start" x="24">Nitrospirae</text></g><g class="legend" id="id5" style="font: 10px sans-serif;" transform="translate(0,260)"><rect width="18" height="18" x="0" style="fill: rgb(102, 102, 102);"/><text y="9" dy=".35em" text-anchor="start" x="24">BRC1</text></g><g class="legend" id="id11" style="font: 10px sans-serif;" transform="translate(0,240)"><rect width="18" height="18" x="0" style="fill: rgb(127, 201, 127);"/><text y="9" dy=".35em" text-anchor="start" x="24">Deinococcus-Thermus</text></g><g class="legend" id="id7" style="font: 10px sans-serif;" transform="translate(0,220)"><rect width="18" height="18" x="0" style="fill: rgb(190, 174, 212);"/><text y="9" dy=".35em" text-anchor="start" x="24">Chlamydiae</text></g><g class="legend" id="id9" style="font: 10px sans-serif;" transform="translate(0,200)"><rect width="18" height="18" x="0" style="fill: rgb(253, 192, 134);"/><text y="9" dy=".35em" text-anchor="start" x="24">Cyanobacteria</text></g><g class="legend" id="id21" style="font: 10px sans-serif;" transform="translate(0,180)"><rect width="18" height="18" x="0" style="fill: rgb(255, 255, 153);"/><text y="9" dy=".35em" text-anchor="start" x="24">Gemmatimonadetes</text></g><g class="legend" id="id34" style="font: 10px sans-serif;" transform="translate(0,160)"><rect width="18" height="18" x="0" style="fill: rgb(56, 108, 176);"/><text y="9" dy=".35em" text-anchor="start" x="24">Verrucomicrobia</text></g><g class="legend" id="id2" style="font: 10px sans-serif;" transform="translate(0,140)"><rect width="18" height="18" x="0" style="fill: rgb(240, 2, 127);"/><text y="9" dy=".35em" text-anchor="start" x="24">Acidobacteria</text></g><g class="legend" id="id29" style="font: 10px sans-serif;" transform="translate(0,120)"><rect width="18" height="18" x="0" style="fill: rgb(191, 91, 23);"/><text y="9" dy=".35em" text-anchor="start" x="24">Patescibacteria</text></g><g class="legend" id="id19" style="font: 10px sans-serif;" transform="translate(0,100)"><rect width="18" height="18" x="0" style="fill: rgb(102, 102, 102);"/><text y="9" dy=".35em" text-anchor="start" x="24">Firmicutes</text></g><g class="legend" id="id6" style="font: 10px sans-serif;" transform="translate(0,80)"><rect width="18" height="18" x="0" style="fill: rgb(127, 201, 127);"/><text y="9" dy=".35em" text-anchor="start" x="24">Bacteroidetes</text></g><g class="legend" id="id8" style="font: 10px sans-serif;" transform="translate(0,60)"><rect width="18" height="18" x="0" style="fill: rgb(190, 174, 212);"/><text y="9" dy=".35em" text-anchor="start" x="24">Chloroflexi</text></g><g class="legend" id="id3" style="font: 10px sans-serif;" transform="translate(0,40)"><rect width="18" height="18" x="0" style="fill: rgb(253, 192, 134);"/><text y="9" dy=".35em" text-anchor="start" x="24">Actinobacteria</text></g><g class="legend" id="id30" style="font: 10px sans-serif;" transform="translate(0,20)"><rect width="18" height="18" x="0" style="fill: rgb(255, 255, 153);"/><text y="9" dy=".35em" text-anchor="start" x="24">Planctomycetes</text></g><g class="legend" id="id31" style="font: 10px sans-serif;" transform="translate(0,0)"><rect width="18" height="18" x="0" style="fill: rgb(56, 108, 176);"/><text y="9" dy=".35em" text-anchor="start" x="24">Proteobacteria</text></g></svg>